<svg xmlns="http://www.w3.org/2000/svg" width="64" height="64"><path fill="none" stroke="#373449" stroke-linecap="round" stroke-linejoin="round" d="M16 26.474v-11.26"/><path fill="#d0dde6" d="M20.41 26.467c0 2.05-1.974 4.98-4.41 4.98s-4.41-2.93-4.41-4.98"/><path fill="#5bdadd" d="M15.546 14.607c-.663-9.9-.855-10.121-1.031-12.568-.049-.667.464-1.486 1.486-1.486a1.44 1.44 0 0 1 1.486 1.486c-.133 2.47-.262 2.624-.969 12.568z"/><path fill="#ceab7e" stroke="#373449" stroke-linecap="round" stroke-linejoin="round" d="M15.546 14.607c-.663-9.9-.855-10.121-1.031-12.568-.049-.667.464-1.486 1.486-1.486a1.44 1.44 0 0 1 1.486 1.486c-.133 2.47-.262 2.624-.969 12.568z"/><path fill="#e6cc9b" d="M16.517 2.455a.5.5 0 1 1-1 0 .5.5 0 0 1 1 0z"/><path fill="none" stroke="#373449" stroke-linecap="round" stroke-linejoin="round" d="M20.41 26.49c0 2.05-1.282 4.957-4.41 4.957s-4.41-2.908-4.41-4.958z"/></svg>