<svg xmlns="http://www.w3.org/2000/svg" xmlns:xlink="http://www.w3.org/1999/xlink" width="265" zoomAndPan="magnify" viewBox="0 0 198.75 51.749998" height="69" preserveAspectRatio="xMidYMid meet" version="1.0"><defs><g/><clipPath id="id1"><path d="M 113.03125 0 L 173 0 L 173 50 L 113.03125 50 Z M 113.03125 0 " clip-rule="nonzero"/></clipPath><clipPath id="id2"><path d="M 17.921875 15.46875 L 27.640625 15.46875 L 27.640625 36.394531 L 17.921875 36.394531 Z M 17.921875 15.46875 " clip-rule="nonzero"/></clipPath></defs><g clip-path="url(#id1)"><path fill="#d0dde6" d="M 142.765625 5.929688 C 138.625 7.804688 133.761719 7.070312 129.3125 6.96875 C 124.863281 6.871094 118.5625 7.222656 117.300781 12.648438 C 116.820312 14.71875 117.375 17.046875 118.738281 18.695312 C 120.179688 20.433594 122.503906 21.558594 123.097656 23.75 C 123.570312 25.480469 122.746094 27.28125 121.695312 28.671875 C 120.007812 30.90625 117.710938 32.574219 115.960938 34.757812 C 114.210938 36.9375 113.03125 39.996094 114.105469 42.667969 C 115.1875 45.359375 118.101562 46.695312 120.792969 47.542969 C 126.484375 49.335938 132.902344 50.070312 138.042969 47.1875 C 141.085938 45.480469 143.496094 42.601562 146.808594 41.523438 C 151.09375 40.128906 155.796875 42.070312 160.296875 41.710938 C 165.660156 41.277344 170.503906 37.25 172.03125 31.945312 C 173.558594 26.640625 171.679688 20.382812 167.480469 16.785156 C 165.515625 15.097656 163.132812 13.984375 161.234375 12.222656 C 159.738281 10.835938 158.574219 9.070312 157.882812 7.132812 C 157.148438 5.082031 156.8125 2.65625 155.109375 1.347656 C 153.367188 0.00390625 150.878906 0.453125 149.035156 1.546875 C 147.191406 2.636719 145.699219 4.273438 143.855469 5.363281 C 143.496094 5.574219 143.132812 5.761719 142.765625 5.929688 " fill-opacity="1" fill-rule="nonzero"/></g><g fill="#212b30" fill-opacity="1"><g transform="translate(36.845594, 34.37732)"><g><path d="M 5.71875 0.234375 C 5.414062 0.234375 5.128906 0.0234375 4.859375 -0.390625 L 4.859375 -0.46875 C 4.804688 -1.289062 4.660156 -2.207031 4.421875 -3.21875 C 4.191406 -4.226562 3.851562 -5.445312 3.40625 -6.875 C 3.0625 -7.945312 2.773438 -8.914062 2.546875 -9.78125 L 2.546875 -0.578125 C 2.546875 -0.328125 2.5 -0.144531 2.40625 -0.03125 C 2.320312 0.0820312 2.15625 0.140625 1.90625 0.140625 C 1.726562 0.140625 1.582031 0.0820312 1.46875 -0.03125 C 1.363281 -0.144531 1.3125 -0.296875 1.3125 -0.484375 L 1.3125 -0.671875 L 1.359375 -7.53125 C 1.390625 -9.550781 1.40625 -11.832031 1.40625 -14.375 L 1.40625 -17.234375 C 1.40625 -17.421875 1.441406 -17.550781 1.515625 -17.625 C 1.597656 -17.695312 1.757812 -17.734375 2 -17.734375 C 2.394531 -17.734375 2.753906 -17.65625 3.078125 -17.5 C 3.398438 -17.351562 3.679688 -17.148438 3.921875 -16.890625 C 4.398438 -16.347656 4.710938 -15.695312 4.859375 -14.9375 C 4.921875 -14.625 4.953125 -14.265625 4.953125 -13.859375 C 4.953125 -13.617188 4.929688 -13.359375 4.890625 -13.078125 C 4.847656 -12.804688 4.820312 -12.628906 4.8125 -12.546875 C 4.78125 -12.390625 4.707031 -12.15625 4.59375 -11.84375 C 4.488281 -11.539062 4.421875 -11.34375 4.390625 -11.25 L 4.109375 -10.59375 L 3.875 -9.984375 C 3.882812 -9.421875 3.976562 -8.710938 4.15625 -7.859375 C 4.34375 -7.003906 4.546875 -6.210938 4.765625 -5.484375 C 4.921875 -4.972656 5.195312 -4.117188 5.59375 -2.921875 L 6.28125 -0.859375 L 6.28125 -0.8125 C 6.28125 -0.550781 6.253906 -0.328125 6.203125 -0.140625 C 6.160156 0.109375 6 0.234375 5.71875 0.234375 Z M 2.5 -10.828125 C 2.71875 -11.046875 2.984375 -11.347656 3.296875 -11.734375 L 3.640625 -13.734375 C 3.648438 -13.816406 3.65625 -13.925781 3.65625 -14.0625 C 3.65625 -14.519531 3.570312 -15.039062 3.40625 -15.625 C 3.3125 -15.90625 3.191406 -16.144531 3.046875 -16.34375 C 2.898438 -16.539062 2.75 -16.644531 2.59375 -16.65625 L 2.546875 -14.328125 C 2.492188 -13.285156 2.46875 -12.472656 2.46875 -11.890625 C 2.46875 -11.347656 2.476562 -10.992188 2.5 -10.828125 Z M 2.5 -10.828125 "/></g></g></g><g fill="#212b30" fill-opacity="1"><g transform="translate(45.291515, 34.37732)"><g><path d="M 2.5 0.296875 C 2.289062 0.296875 2.101562 0.226562 1.9375 0.09375 C 1.78125 -0.0390625 1.691406 -0.210938 1.671875 -0.421875 L 1.671875 -1.5 C 1.660156 -1.632812 1.65625 -1.796875 1.65625 -1.984375 C 1.65625 -2.304688 1.632812 -2.800781 1.59375 -3.46875 L 1.546875 -4.96875 C 1.546875 -5.726562 1.566406 -6.863281 1.609375 -8.375 C 1.671875 -9.726562 1.703125 -10.863281 1.703125 -11.78125 C 1.703125 -12 1.679688 -12.328125 1.640625 -12.765625 C 1.585938 -13.210938 1.5625 -13.535156 1.5625 -13.734375 C 1.5625 -14.835938 1.890625 -15.390625 2.546875 -15.390625 C 3.054688 -15.390625 3.648438 -15.289062 4.328125 -15.09375 C 5.003906 -14.894531 5.34375 -14.65625 5.34375 -14.375 C 5.34375 -14.21875 5.273438 -14.070312 5.140625 -13.9375 C 5.015625 -13.800781 4.859375 -13.695312 4.671875 -13.625 C 4.015625 -13.851562 3.421875 -14.007812 2.890625 -14.09375 C 2.910156 -13.851562 2.921875 -13.519531 2.921875 -13.09375 C 2.921875 -12.46875 2.910156 -11.90625 2.890625 -11.40625 C 2.847656 -10.65625 2.828125 -10.097656 2.828125 -9.734375 L 2.890625 -9.359375 L 3.265625 -9.375 C 3.390625 -9.394531 3.546875 -9.40625 3.734375 -9.40625 C 4.484375 -9.40625 4.859375 -9.1875 4.859375 -8.75 C 4.859375 -8.570312 4.785156 -8.425781 4.640625 -8.3125 C 4.503906 -8.195312 4.328125 -8.140625 4.109375 -8.140625 C 3.828125 -8.140625 3.609375 -8.15625 3.453125 -8.1875 L 2.875 -8.1875 C 2.90625 -7.78125 2.921875 -7.191406 2.921875 -6.421875 C 2.921875 -5.640625 2.910156 -4.9375 2.890625 -4.3125 C 2.847656 -3.363281 2.828125 -2.65625 2.828125 -2.1875 C 2.828125 -1.320312 2.84375 -0.890625 2.875 -0.890625 L 3.640625 -0.90625 C 3.898438 -0.925781 4.21875 -0.9375 4.59375 -0.9375 C 5.1875 -0.9375 5.484375 -0.75 5.484375 -0.375 C 5.484375 -0.15625 5.382812 0.0078125 5.1875 0.125 C 5 0.238281 4.765625 0.296875 4.484375 0.296875 Z M 2.5 0.296875 "/></g></g></g><g fill="#212b30" fill-opacity="1"><g transform="translate(53.620791, 34.37732)"><g><path d="M 4.546875 0.328125 C 4.203125 0.328125 3.835938 0.273438 3.453125 0.171875 C 3.078125 0.0664062 2.789062 -0.0390625 2.59375 -0.15625 C 1.550781 -0.832031 1.03125 -2.660156 1.03125 -5.640625 L 1.03125 -7.5625 C 1.03125 -8.175781 1.035156 -8.726562 1.046875 -9.21875 C 1.066406 -9.71875 1.097656 -10.253906 1.140625 -10.828125 C 1.191406 -11.429688 1.265625 -11.921875 1.359375 -12.296875 C 1.453125 -12.679688 1.601562 -13.113281 1.8125 -13.59375 C 2 -14.050781 2.226562 -14.398438 2.5 -14.640625 C 2.78125 -14.890625 3.132812 -15.101562 3.5625 -15.28125 C 3.957031 -15.445312 4.441406 -15.53125 5.015625 -15.53125 C 5.242188 -15.53125 5.421875 -15.472656 5.546875 -15.359375 C 5.671875 -15.253906 5.734375 -15.117188 5.734375 -14.953125 C 5.734375 -14.796875 5.679688 -14.65625 5.578125 -14.53125 C 5.484375 -14.40625 5.363281 -14.335938 5.21875 -14.328125 L 4.125 -14.328125 C 3.8125 -14.328125 3.539062 -14.128906 3.3125 -13.734375 C 3.082031 -13.347656 2.921875 -12.84375 2.828125 -12.21875 C 2.617188 -11.070312 2.515625 -10.140625 2.515625 -9.421875 L 2.515625 -9.3125 L 2.46875 -7.0625 C 2.4375 -6.394531 2.421875 -5.644531 2.421875 -4.8125 C 2.421875 -4.21875 2.445312 -3.734375 2.5 -3.359375 C 2.570312 -2.796875 2.703125 -2.328125 2.890625 -1.953125 C 3.078125 -1.535156 3.394531 -1.234375 3.84375 -1.046875 C 4.082031 -0.953125 4.34375 -0.90625 4.625 -0.90625 C 4.789062 -0.90625 4.957031 -0.96875 5.125 -1.09375 C 5.332031 -1.09375 5.5 -1.050781 5.625 -0.96875 C 5.757812 -0.882812 5.828125 -0.753906 5.828125 -0.578125 C 5.828125 0.0234375 5.398438 0.328125 4.546875 0.328125 Z M 4.546875 0.328125 "/></g></g></g><g fill="#212b30" fill-opacity="1"><g transform="translate(61.833411, 34.37732)"><g><path d="M 2.5 0.296875 C 2.289062 0.296875 2.101562 0.226562 1.9375 0.09375 C 1.78125 -0.0390625 1.691406 -0.210938 1.671875 -0.421875 L 1.671875 -1.5 C 1.660156 -1.632812 1.65625 -1.796875 1.65625 -1.984375 C 1.65625 -2.304688 1.632812 -2.800781 1.59375 -3.46875 L 1.546875 -4.96875 C 1.546875 -5.726562 1.566406 -6.863281 1.609375 -8.375 C 1.671875 -9.726562 1.703125 -10.863281 1.703125 -11.78125 C 1.703125 -12 1.679688 -12.328125 1.640625 -12.765625 C 1.585938 -13.210938 1.5625 -13.535156 1.5625 -13.734375 C 1.5625 -14.835938 1.890625 -15.390625 2.546875 -15.390625 C 3.054688 -15.390625 3.648438 -15.289062 4.328125 -15.09375 C 5.003906 -14.894531 5.34375 -14.65625 5.34375 -14.375 C 5.34375 -14.21875 5.273438 -14.070312 5.140625 -13.9375 C 5.015625 -13.800781 4.859375 -13.695312 4.671875 -13.625 C 4.015625 -13.851562 3.421875 -14.007812 2.890625 -14.09375 C 2.910156 -13.851562 2.921875 -13.519531 2.921875 -13.09375 C 2.921875 -12.46875 2.910156 -11.90625 2.890625 -11.40625 C 2.847656 -10.65625 2.828125 -10.097656 2.828125 -9.734375 L 2.890625 -9.359375 L 3.265625 -9.375 C 3.390625 -9.394531 3.546875 -9.40625 3.734375 -9.40625 C 4.484375 -9.40625 4.859375 -9.1875 4.859375 -8.75 C 4.859375 -8.570312 4.785156 -8.425781 4.640625 -8.3125 C 4.503906 -8.195312 4.328125 -8.140625 4.109375 -8.140625 C 3.828125 -8.140625 3.609375 -8.15625 3.453125 -8.1875 L 2.875 -8.1875 C 2.90625 -7.78125 2.921875 -7.191406 2.921875 -6.421875 C 2.921875 -5.640625 2.910156 -4.9375 2.890625 -4.3125 C 2.847656 -3.363281 2.828125 -2.65625 2.828125 -2.1875 C 2.828125 -1.320312 2.84375 -0.890625 2.875 -0.890625 L 3.640625 -0.90625 C 3.898438 -0.925781 4.21875 -0.9375 4.59375 -0.9375 C 5.1875 -0.9375 5.484375 -0.75 5.484375 -0.375 C 5.484375 -0.15625 5.382812 0.0078125 5.1875 0.125 C 5 0.238281 4.765625 0.296875 4.484375 0.296875 Z M 2.5 0.296875 "/></g></g></g><g fill="#212b30" fill-opacity="1"><g transform="translate(70.162686, 34.37732)"><g><path d="M 2.734375 -0.375 L 2.703125 -1.28125 C 2.691406 -1.539062 2.6875 -1.835938 2.6875 -2.171875 L 2.703125 -2.96875 C 2.660156 -3.132812 2.546875 -4.832031 2.359375 -8.0625 C 2.171875 -11.300781 2.0625 -13.378906 2.03125 -14.296875 C 1.125 -14.328125 0.546875 -14.421875 0.296875 -14.578125 C 0.128906 -14.703125 0.046875 -14.84375 0.046875 -15 C 0.046875 -15.125 0.125 -15.234375 0.28125 -15.328125 C 0.445312 -15.429688 0.617188 -15.484375 0.796875 -15.484375 C 1.234375 -15.484375 1.757812 -15.453125 2.375 -15.390625 C 2.96875 -15.316406 3.5 -15.28125 3.96875 -15.28125 L 4.34375 -15.28125 C 4.820312 -15.28125 5.0625 -15.09375 5.0625 -14.71875 C 5.0625 -14.53125 4.984375 -14.378906 4.828125 -14.265625 C 4.671875 -14.148438 4.492188 -14.09375 4.296875 -14.09375 C 4.148438 -14.09375 3.945312 -14.113281 3.6875 -14.15625 L 3.21875 -14.25 L 3.203125 -14.140625 L 3.171875 -14.015625 C 3.171875 -12.628906 3.300781 -10.421875 3.5625 -7.390625 C 3.8125 -4.546875 3.9375 -2.335938 3.9375 -0.765625 C 3.9375 -0.578125 3.851562 -0.410156 3.6875 -0.265625 C 3.53125 -0.128906 3.351562 -0.0625 3.15625 -0.0625 Z M 2.734375 -0.375 "/></g></g></g><g fill="#212b30" fill-opacity="1"><g transform="translate(77.838694, 34.37732)"><g><path d="M 6.015625 0.203125 C 5.660156 0.203125 5.394531 0.148438 5.21875 0.046875 C 5.050781 -0.0546875 4.96875 -0.257812 4.96875 -0.5625 C 4.96875 -1.03125 4.890625 -1.820312 4.734375 -2.9375 L 4.640625 -3.421875 L 2.328125 -3.78125 C 2.234375 -3.425781 2.101562 -2.703125 1.9375 -1.609375 C 1.84375 -0.847656 1.695312 -0.34375 1.5 -0.09375 C 1.382812 0.0390625 1.226562 0.109375 1.03125 0.109375 C 0.84375 0.109375 0.671875 0.0507812 0.515625 -0.0625 C 0.359375 -0.175781 0.28125 -0.316406 0.28125 -0.484375 L 0.328125 -0.609375 L 0.34375 -0.703125 C 1.375 -4.691406 2.15625 -8.632812 2.6875 -12.53125 C 2.6875 -12.59375 2.691406 -12.695312 2.703125 -12.84375 C 2.722656 -12.988281 2.738281 -13.203125 2.75 -13.484375 C 2.800781 -14.054688 2.851562 -14.515625 2.90625 -14.859375 C 2.957031 -15.203125 3.046875 -15.457031 3.171875 -15.625 L 3.96875 -15.625 C 4.1875 -15.625 4.375 -15.570312 4.53125 -15.46875 C 4.6875 -15.375 4.765625 -15.234375 4.765625 -15.046875 C 4.765625 -13.867188 4.925781 -12.113281 5.25 -9.78125 C 5.5625 -7.382812 5.71875 -5.703125 5.71875 -4.734375 C 5.71875 -4.640625 5.753906 -4.398438 5.828125 -4.015625 C 5.910156 -3.648438 5.953125 -3.414062 5.953125 -3.3125 C 5.953125 -3.207031 6.03125 -2.738281 6.1875 -1.90625 C 6.320312 -1.164062 6.390625 -0.6875 6.390625 -0.46875 L 6.390625 -0.4375 C 6.390625 -0.101562 6.265625 0.109375 6.015625 0.203125 Z M 4.484375 -4.265625 C 4.429688 -4.503906 4.40625 -4.789062 4.40625 -5.125 C 4.40625 -6.53125 4.28125 -8.320312 4.03125 -10.5 L 3.796875 -12.921875 C 3.128906 -9.265625 2.671875 -6.503906 2.421875 -4.640625 C 2.660156 -4.484375 3.347656 -4.359375 4.484375 -4.265625 Z M 4.484375 -4.265625 "/></g></g></g><g fill="#212b30" fill-opacity="1"><g transform="translate(86.517931, 34.37732)"><g><path d="M 1.84375 0.328125 C 1.5625 0.273438 1.320312 0.171875 1.125 0.015625 C 0.9375 -0.128906 0.828125 -0.328125 0.796875 -0.578125 L 1.046875 -0.984375 C 1.140625 -0.984375 1.289062 -0.953125 1.5 -0.890625 C 1.726562 -0.835938 1.90625 -0.8125 2.03125 -0.8125 C 2.3125 -0.8125 2.5625 -0.9375 2.78125 -1.1875 C 3.007812 -1.4375 3.179688 -1.765625 3.296875 -2.171875 C 3.492188 -2.921875 3.59375 -3.585938 3.59375 -4.171875 C 3.59375 -5.203125 3.265625 -6.285156 2.609375 -7.421875 L 2.359375 -7.859375 C 2.054688 -8.367188 1.804688 -8.828125 1.609375 -9.234375 C 1.410156 -9.640625 1.238281 -10.078125 1.09375 -10.546875 C 0.90625 -11.148438 0.8125 -11.753906 0.8125 -12.359375 C 0.8125 -13.046875 0.96875 -13.765625 1.28125 -14.515625 C 1.4375 -14.867188 1.65625 -15.15625 1.9375 -15.375 C 2.226562 -15.601562 2.554688 -15.71875 2.921875 -15.71875 C 3.191406 -15.71875 3.445312 -15.628906 3.6875 -15.453125 C 3.9375 -15.273438 4.0625 -15.0625 4.0625 -14.8125 C 4.0625 -14.675781 4.003906 -14.566406 3.890625 -14.484375 C 3.785156 -14.410156 3.65625 -14.375 3.5 -14.375 C 3.332031 -14.375 3.171875 -14.421875 3.015625 -14.515625 C 2.671875 -14.492188 2.394531 -14.1875 2.1875 -13.59375 C 2.019531 -13.050781 1.9375 -12.601562 1.9375 -12.25 C 1.9375 -11.800781 2.003906 -11.34375 2.140625 -10.875 C 2.285156 -10.414062 2.46875 -10.003906 2.6875 -9.640625 L 3.203125 -8.703125 L 4.015625 -7.15625 C 4.234375 -6.726562 4.40625 -6.222656 4.53125 -5.640625 C 4.664062 -5.066406 4.734375 -4.484375 4.734375 -3.890625 C 4.734375 -2.941406 4.515625 -2.039062 4.078125 -1.1875 C 3.859375 -0.75 3.550781 -0.398438 3.15625 -0.140625 C 2.757812 0.117188 2.320312 0.25 1.84375 0.25 Z M 1.84375 0.328125 "/></g></g></g><g fill="#212b30" fill-opacity="1"><g transform="translate(93.983957, 34.37732)"><g/></g></g><g fill="#212b30" fill-opacity="1"><g transform="translate(99.956812, 34.37732)"><g><path d="M 2.171875 0.140625 C 1.765625 0.140625 1.5625 -0.878906 1.5625 -2.921875 L 1.609375 -6.609375 C 1.628906 -7.691406 1.640625 -8.910156 1.640625 -10.265625 C 1.640625 -10.765625 1.59375 -11.535156 1.5 -12.578125 C 1.414062 -13.710938 1.375 -14.40625 1.375 -14.65625 C 1.375 -14.851562 1.457031 -15.03125 1.625 -15.1875 C 1.800781 -15.34375 1.988281 -15.421875 2.1875 -15.421875 C 2.738281 -15.421875 3.265625 -15.300781 3.765625 -15.0625 C 4.273438 -14.820312 4.722656 -14.484375 5.109375 -14.046875 C 5.929688 -13.097656 6.472656 -12.054688 6.734375 -10.921875 C 6.878906 -10.335938 6.953125 -9.769531 6.953125 -9.21875 C 6.953125 -9.007812 6.941406 -8.820312 6.921875 -8.65625 L 6.90625 -8.03125 L 6.90625 -6.734375 C 6.90625 -5.742188 6.875 -4.960938 6.8125 -4.390625 C 6.71875 -3.609375 6.539062 -2.914062 6.28125 -2.3125 C 5.96875 -1.65625 5.515625 -1.070312 4.921875 -0.5625 C 4.640625 -0.320312 4.28125 -0.0859375 3.84375 0.140625 Z M 3.203125 -1.046875 C 3.503906 -1.046875 3.785156 -1.128906 4.046875 -1.296875 C 4.316406 -1.460938 4.546875 -1.679688 4.734375 -1.953125 C 4.890625 -2.203125 5.03125 -2.515625 5.15625 -2.890625 C 5.289062 -3.273438 5.390625 -3.648438 5.453125 -4.015625 C 5.597656 -4.710938 5.6875 -5.425781 5.71875 -6.15625 C 5.726562 -6.34375 5.734375 -6.613281 5.734375 -6.96875 C 5.734375 -11.664062 4.828125 -14.117188 3.015625 -14.328125 C 2.898438 -13.628906 2.84375 -12.816406 2.84375 -11.890625 C 2.84375 -10.910156 2.90625 -9.203125 3.03125 -6.765625 C 3.144531 -4.597656 3.203125 -2.878906 3.203125 -1.609375 Z M 3.203125 -1.046875 "/></g></g></g><g fill="#212b30" fill-opacity="1"><g transform="translate(109.732596, 34.37732)"><g><path d="M 2.5 0.296875 C 2.289062 0.296875 2.101562 0.226562 1.9375 0.09375 C 1.78125 -0.0390625 1.691406 -0.210938 1.671875 -0.421875 L 1.671875 -1.5 C 1.660156 -1.632812 1.65625 -1.796875 1.65625 -1.984375 C 1.65625 -2.304688 1.632812 -2.800781 1.59375 -3.46875 L 1.546875 -4.96875 C 1.546875 -5.726562 1.566406 -6.863281 1.609375 -8.375 C 1.671875 -9.726562 1.703125 -10.863281 1.703125 -11.78125 C 1.703125 -12 1.679688 -12.328125 1.640625 -12.765625 C 1.585938 -13.210938 1.5625 -13.535156 1.5625 -13.734375 C 1.5625 -14.835938 1.890625 -15.390625 2.546875 -15.390625 C 3.054688 -15.390625 3.648438 -15.289062 4.328125 -15.09375 C 5.003906 -14.894531 5.34375 -14.65625 5.34375 -14.375 C 5.34375 -14.21875 5.273438 -14.070312 5.140625 -13.9375 C 5.015625 -13.800781 4.859375 -13.695312 4.671875 -13.625 C 4.015625 -13.851562 3.421875 -14.007812 2.890625 -14.09375 C 2.910156 -13.851562 2.921875 -13.519531 2.921875 -13.09375 C 2.921875 -12.46875 2.910156 -11.90625 2.890625 -11.40625 C 2.847656 -10.65625 2.828125 -10.097656 2.828125 -9.734375 L 2.890625 -9.359375 L 3.265625 -9.375 C 3.390625 -9.394531 3.546875 -9.40625 3.734375 -9.40625 C 4.484375 -9.40625 4.859375 -9.1875 4.859375 -8.75 C 4.859375 -8.570312 4.785156 -8.425781 4.640625 -8.3125 C 4.503906 -8.195312 4.328125 -8.140625 4.109375 -8.140625 C 3.828125 -8.140625 3.609375 -8.15625 3.453125 -8.1875 L 2.875 -8.1875 C 2.90625 -7.78125 2.921875 -7.191406 2.921875 -6.421875 C 2.921875 -5.640625 2.910156 -4.9375 2.890625 -4.3125 C 2.847656 -3.363281 2.828125 -2.65625 2.828125 -2.1875 C 2.828125 -1.320312 2.84375 -0.890625 2.875 -0.890625 L 3.640625 -0.90625 C 3.898438 -0.925781 4.21875 -0.9375 4.59375 -0.9375 C 5.1875 -0.9375 5.484375 -0.75 5.484375 -0.375 C 5.484375 -0.15625 5.382812 0.0078125 5.1875 0.125 C 5 0.238281 4.765625 0.296875 4.484375 0.296875 Z M 2.5 0.296875 "/></g></g></g><g fill="#212b30" fill-opacity="1"><g transform="translate(118.061871, 34.37732)"><g/></g></g><g fill="#212b30" fill-opacity="1"><g transform="translate(124.034725, 34.37732)"><g><path d="M 2.1875 0.109375 C 2.019531 0.109375 1.882812 0.0351562 1.78125 -0.109375 C 1.6875 -0.253906 1.640625 -0.4375 1.640625 -0.65625 L 1.671875 -4.578125 C 1.722656 -6.472656 1.75 -7.941406 1.75 -8.984375 C 1.75 -12.609375 1.546875 -15.382812 1.140625 -17.3125 C 1.378906 -17.664062 1.675781 -17.84375 2.03125 -17.84375 C 2.601562 -17.84375 3.125 -17.710938 3.59375 -17.453125 C 4.070312 -17.203125 4.46875 -16.859375 4.78125 -16.421875 C 5.382812 -15.515625 5.6875 -14.503906 5.6875 -13.390625 C 5.6875 -12.222656 5.4375 -11.179688 4.9375 -10.265625 C 4.445312 -9.347656 3.726562 -8.632812 2.78125 -8.125 L 2.828125 -5.765625 L 2.875 -4.53125 C 2.882812 -4.257812 2.890625 -3.875 2.890625 -3.375 C 2.941406 -2.332031 2.96875 -1.488281 2.96875 -0.84375 C 2.96875 -0.539062 2.90625 -0.304688 2.78125 -0.140625 C 2.65625 0.0234375 2.457031 0.109375 2.1875 0.109375 Z M 2.734375 -9.234375 C 3.335938 -9.804688 3.78125 -10.40625 4.0625 -11.03125 C 4.351562 -11.664062 4.5 -12.382812 4.5 -13.1875 L 4.5 -13.203125 C 4.5 -13.554688 4.460938 -14.007812 4.390625 -14.5625 C 4.335938 -14.75 4.25 -14.929688 4.125 -15.109375 C 4 -15.296875 3.929688 -15.40625 3.921875 -15.4375 C 3.804688 -15.59375 3.519531 -15.835938 3.0625 -16.171875 L 2.453125 -16.609375 C 2.453125 -15.816406 2.5 -14.585938 2.59375 -12.921875 Z M 2.734375 -9.234375 "/></g></g></g><g fill="#212b30" fill-opacity="1"><g transform="translate(132.457326, 34.37732)"><g><path d="M 6.015625 0.203125 C 5.660156 0.203125 5.394531 0.148438 5.21875 0.046875 C 5.050781 -0.0546875 4.96875 -0.257812 4.96875 -0.5625 C 4.96875 -1.03125 4.890625 -1.820312 4.734375 -2.9375 L 4.640625 -3.421875 L 2.328125 -3.78125 C 2.234375 -3.425781 2.101562 -2.703125 1.9375 -1.609375 C 1.84375 -0.847656 1.695312 -0.34375 1.5 -0.09375 C 1.382812 0.0390625 1.226562 0.109375 1.03125 0.109375 C 0.84375 0.109375 0.671875 0.0507812 0.515625 -0.0625 C 0.359375 -0.175781 0.28125 -0.316406 0.28125 -0.484375 L 0.328125 -0.609375 L 0.34375 -0.703125 C 1.375 -4.691406 2.15625 -8.632812 2.6875 -12.53125 C 2.6875 -12.59375 2.691406 -12.695312 2.703125 -12.84375 C 2.722656 -12.988281 2.738281 -13.203125 2.75 -13.484375 C 2.800781 -14.054688 2.851562 -14.515625 2.90625 -14.859375 C 2.957031 -15.203125 3.046875 -15.457031 3.171875 -15.625 L 3.96875 -15.625 C 4.1875 -15.625 4.375 -15.570312 4.53125 -15.46875 C 4.6875 -15.375 4.765625 -15.234375 4.765625 -15.046875 C 4.765625 -13.867188 4.925781 -12.113281 5.25 -9.78125 C 5.5625 -7.382812 5.71875 -5.703125 5.71875 -4.734375 C 5.71875 -4.640625 5.753906 -4.398438 5.828125 -4.015625 C 5.910156 -3.648438 5.953125 -3.414062 5.953125 -3.3125 C 5.953125 -3.207031 6.03125 -2.738281 6.1875 -1.90625 C 6.320312 -1.164062 6.390625 -0.6875 6.390625 -0.46875 L 6.390625 -0.4375 C 6.390625 -0.101562 6.265625 0.109375 6.015625 0.203125 Z M 4.484375 -4.265625 C 4.429688 -4.503906 4.40625 -4.789062 4.40625 -5.125 C 4.40625 -6.53125 4.28125 -8.320312 4.03125 -10.5 L 3.796875 -12.921875 C 3.128906 -9.265625 2.671875 -6.503906 2.421875 -4.640625 C 2.660156 -4.484375 3.347656 -4.359375 4.484375 -4.265625 Z M 4.484375 -4.265625 "/></g></g></g><g fill="#212b30" fill-opacity="1"><g transform="translate(141.13656, 34.37732)"><g><path d="M 3.921875 0.34375 C 3.546875 0.34375 3.207031 0.257812 2.90625 0.09375 C 2.613281 -0.0625 2.375 -0.296875 2.1875 -0.609375 C 1.820312 -1.265625 1.582031 -2.003906 1.46875 -2.828125 C 1.363281 -3.535156 1.3125 -4.390625 1.3125 -5.390625 C 1.257812 -7.066406 1.234375 -9.117188 1.234375 -11.546875 L 1.21875 -13.34375 C 1.195312 -13.4375 1.1875 -13.59375 1.1875 -13.8125 C 1.15625 -14.40625 1.140625 -14.765625 1.140625 -14.890625 C 1.285156 -15.210938 1.453125 -15.375 1.640625 -15.375 C 1.816406 -15.375 1.976562 -15.234375 2.125 -14.953125 C 2.28125 -14.671875 2.359375 -14.367188 2.359375 -14.046875 L 2.359375 -7.703125 C 2.359375 -7.078125 2.410156 -6.25 2.515625 -5.21875 C 2.628906 -3.945312 2.6875 -3.125 2.6875 -2.75 C 2.6875 -1.601562 3.175781 -1.03125 4.15625 -1.03125 C 5.269531 -1.03125 5.828125 -5.210938 5.828125 -13.578125 L 5.828125 -15.09375 C 5.816406 -15.132812 5.8125 -15.195312 5.8125 -15.28125 C 5.8125 -15.46875 5.851562 -15.601562 5.9375 -15.6875 C 6.019531 -15.769531 6.1875 -15.8125 6.4375 -15.8125 C 6.632812 -15.8125 6.789062 -15.753906 6.90625 -15.640625 C 7.03125 -15.523438 7.109375 -15.390625 7.140625 -15.234375 C 7.148438 -15.140625 7.15625 -14.960938 7.15625 -14.703125 C 7.15625 -14.453125 7.132812 -14.050781 7.09375 -13.5 C 7.03125 -13.050781 7 -12.664062 7 -12.34375 C 7 -11.976562 6.984375 -11.660156 6.953125 -11.390625 L 6.90625 -10.40625 L 6.90625 -10.21875 C 6.914062 -10.15625 6.921875 -10.082031 6.921875 -10 C 6.921875 -3.101562 5.921875 0.34375 3.921875 0.34375 Z M 3.921875 0.34375 "/></g></g></g><g fill="#212b30" fill-opacity="1"><g transform="translate(151.262309, 34.37732)"><g><path d="M 5.015625 0.375 C 4.453125 0.1875 3.757812 0.09375 2.9375 0.09375 C 2.6875 0.25 2.421875 0.328125 2.140625 0.328125 C 1.953125 0.328125 1.789062 0.242188 1.65625 0.078125 C 1.53125 -0.078125 1.46875 -0.25 1.46875 -0.4375 C 1.46875 -1.75 1.523438 -3.492188 1.640625 -5.671875 C 1.722656 -7.984375 1.765625 -9.71875 1.765625 -10.875 L 1.765625 -11.03125 C 1.679688 -12.007812 1.640625 -12.742188 1.640625 -13.234375 C 1.640625 -14.703125 1.910156 -15.4375 2.453125 -15.4375 C 2.609375 -15.4375 2.742188 -15.378906 2.859375 -15.265625 C 2.972656 -15.148438 3.03125 -15.015625 3.03125 -14.859375 C 3.03125 -14.671875 3.007812 -14.375 2.96875 -13.96875 C 2.914062 -13.582031 2.890625 -13.289062 2.890625 -13.09375 C 2.890625 -12.050781 2.898438 -11.109375 2.921875 -10.265625 C 2.929688 -9.441406 2.9375 -8.507812 2.9375 -7.46875 C 2.863281 -7.226562 2.828125 -6.898438 2.828125 -6.484375 L 2.828125 -6.203125 L 2.78125 -4.359375 C 2.75 -3.816406 2.734375 -3.195312 2.734375 -2.5 C 2.734375 -1.425781 2.988281 -0.890625 3.5 -0.890625 C 3.53125 -0.890625 3.578125 -0.890625 3.640625 -0.890625 C 3.710938 -0.898438 3.8125 -0.90625 3.9375 -0.90625 C 4.082031 -0.925781 4.265625 -0.9375 4.484375 -0.9375 C 5.316406 -0.9375 5.734375 -0.703125 5.734375 -0.234375 C 5.734375 -0.078125 5.660156 0.0507812 5.515625 0.15625 C 5.378906 0.269531 5.210938 0.34375 5.015625 0.375 Z M 5.015625 0.375 "/></g></g></g><g fill="#212b30" fill-opacity="1"><g transform="translate(159.218288, 34.37732)"><g><path d="M 6.015625 0.203125 C 5.660156 0.203125 5.394531 0.148438 5.21875 0.046875 C 5.050781 -0.0546875 4.96875 -0.257812 4.96875 -0.5625 C 4.96875 -1.03125 4.890625 -1.820312 4.734375 -2.9375 L 4.640625 -3.421875 L 2.328125 -3.78125 C 2.234375 -3.425781 2.101562 -2.703125 1.9375 -1.609375 C 1.84375 -0.847656 1.695312 -0.34375 1.5 -0.09375 C 1.382812 0.0390625 1.226562 0.109375 1.03125 0.109375 C 0.84375 0.109375 0.671875 0.0507812 0.515625 -0.0625 C 0.359375 -0.175781 0.28125 -0.316406 0.28125 -0.484375 L 0.328125 -0.609375 L 0.34375 -0.703125 C 1.375 -4.691406 2.15625 -8.632812 2.6875 -12.53125 C 2.6875 -12.59375 2.691406 -12.695312 2.703125 -12.84375 C 2.722656 -12.988281 2.738281 -13.203125 2.75 -13.484375 C 2.800781 -14.054688 2.851562 -14.515625 2.90625 -14.859375 C 2.957031 -15.203125 3.046875 -15.457031 3.171875 -15.625 L 3.96875 -15.625 C 4.1875 -15.625 4.375 -15.570312 4.53125 -15.46875 C 4.6875 -15.375 4.765625 -15.234375 4.765625 -15.046875 C 4.765625 -13.867188 4.925781 -12.113281 5.25 -9.78125 C 5.5625 -7.382812 5.71875 -5.703125 5.71875 -4.734375 C 5.71875 -4.640625 5.753906 -4.398438 5.828125 -4.015625 C 5.910156 -3.648438 5.953125 -3.414062 5.953125 -3.3125 C 5.953125 -3.207031 6.03125 -2.738281 6.1875 -1.90625 C 6.320312 -1.164062 6.390625 -0.6875 6.390625 -0.46875 L 6.390625 -0.4375 C 6.390625 -0.101562 6.265625 0.109375 6.015625 0.203125 Z M 4.484375 -4.265625 C 4.429688 -4.503906 4.40625 -4.789062 4.40625 -5.125 C 4.40625 -6.53125 4.28125 -8.320312 4.03125 -10.5 L 3.796875 -12.921875 C 3.128906 -9.265625 2.671875 -6.503906 2.421875 -4.640625 C 2.660156 -4.484375 3.347656 -4.359375 4.484375 -4.265625 Z M 4.484375 -4.265625 "/></g></g></g><g clip-path="url(#id2)"><path fill="#486572" d="M 19.929688 19.203125 C 19.984375 18.6875 20.070312 18.171875 20.144531 17.660156 C 20.179688 17.417969 20.21875 17.175781 20.246094 16.933594 C 20.277344 16.628906 20.320312 16.308594 20.277344 16.003906 C 20.261719 15.882812 20.304688 15.753906 20.433594 15.71875 C 20.539062 15.691406 20.691406 15.757812 20.707031 15.882812 C 20.789062 16.460938 20.679688 17.0625 20.597656 17.640625 C 20.523438 18.160156 20.433594 18.679688 20.375 19.203125 C 20.363281 19.324219 20.285156 19.4375 20.152344 19.433594 C 20.042969 19.433594 19.917969 19.328125 19.929688 19.203125 Z M 21.878906 19.371094 C 22.113281 18.328125 22.242188 17.257812 22.257812 16.183594 C 22.261719 15.882812 21.816406 15.882812 21.8125 16.183594 C 21.796875 17.21875 21.675781 18.242188 21.453125 19.25 C 21.386719 19.542969 21.816406 19.664062 21.878906 19.371094 Z M 23.484375 16.183594 C 23.300781 17.195312 23.148438 18.226562 22.90625 19.226562 C 22.71875 20 22.460938 20.839844 21.863281 21.375 C 21.65625 21.5625 21.414062 21.703125 21.148438 21.78125 C 20.777344 21.890625 20.417969 21.714844 20.109375 21.503906 C 19.421875 21.027344 19.210938 20.039062 19.101562 19.242188 C 18.945312 18.128906 19.03125 16.984375 19.222656 15.886719 C 19.273438 15.59375 18.84375 15.464844 18.792969 15.761719 C 18.601562 16.855469 18.507812 17.980469 18.636719 19.089844 C 18.738281 19.972656 18.941406 21.09375 19.628906 21.703125 C 19.871094 21.917969 20.167969 22.113281 20.484375 22.214844 C 20.34375 23.726562 20.21875 25.238281 20.019531 26.742188 C 19.535156 26.699219 19.070312 26.847656 18.808594 27.3125 C 18.6875 27.523438 18.660156 27.75 18.632812 27.988281 C 18.480469 29.445312 18.332031 30.90625 18.179688 32.363281 C 18.113281 32.96875 18.054688 33.574219 17.988281 34.179688 C 17.964844 34.417969 17.953125 34.644531 18.035156 34.875 C 18.132812 35.152344 18.328125 35.394531 18.578125 35.53125 C 18.765625 35.632812 18.960938 35.660156 19.167969 35.683594 C 19.320312 35.703125 19.472656 35.71875 19.625 35.734375 C 20.21875 35.785156 20.773438 35.347656 20.867188 34.726562 C 20.886719 34.597656 20.898438 34.464844 20.910156 34.335938 C 20.980469 33.675781 21.046875 33.015625 21.117188 32.355469 C 21.261719 30.964844 21.410156 29.570312 21.550781 28.179688 C 21.585938 27.832031 21.511719 27.496094 21.292969 27.222656 C 21.066406 26.9375 20.773438 26.839844 20.457031 26.792969 C 20.65625 25.296875 20.78125 23.792969 20.921875 22.289062 C 21.238281 22.285156 21.554688 22.140625 21.816406 21.980469 C 22.507812 21.5625 22.882812 20.8125 23.136719 20.050781 C 23.328125 19.472656 23.445312 18.871094 23.554688 18.273438 C 23.675781 17.617188 23.792969 16.960938 23.914062 16.304688 C 23.96875 16.015625 23.539062 15.890625 23.484375 16.183594 Z M 27.597656 17.527344 C 27.558594 18.144531 27.46875 18.761719 27.398438 19.375 C 27.269531 20.492188 27.140625 21.605469 27.011719 22.722656 C 26.90625 23.636719 26.773438 24.554688 26.699219 25.476562 C 26.636719 26.261719 26.585938 27.050781 26.527344 27.839844 C 26.5625 27.863281 26.59375 27.890625 26.625 27.925781 C 26.847656 28.164062 26.917969 28.480469 26.886719 28.804688 C 26.742188 30.195312 26.59375 31.589844 26.449219 32.984375 C 26.378906 33.667969 26.308594 34.347656 26.238281 35.027344 C 26.222656 35.160156 26.210938 35.292969 26.195312 35.425781 C 26.132812 35.976562 25.699219 36.390625 25.15625 36.347656 C 25.007812 36.332031 24.859375 36.316406 24.710938 36.300781 C 24.539062 36.277344 24.355469 36.273438 24.191406 36.210938 C 23.921875 36.105469 23.710938 35.882812 23.613281 35.597656 C 23.546875 35.394531 23.5625 35.199219 23.585938 34.992188 C 23.648438 34.382812 23.710938 33.777344 23.773438 33.171875 C 23.929688 31.683594 24.082031 30.195312 24.238281 28.707031 C 24.253906 28.558594 24.257812 28.390625 24.304688 28.25 C 24.390625 27.960938 24.59375 27.730469 24.863281 27.617188 C 24.90625 27.597656 24.953125 27.582031 24.996094 27.574219 C 25.027344 27.21875 25.054688 26.859375 25.082031 26.503906 C 24.859375 26.484375 24.636719 26.464844 24.414062 26.445312 C 24.300781 26.433594 24.183594 26.34375 24.191406 26.210938 C 24.234375 25.265625 24.28125 24.316406 24.363281 23.371094 C 24.507812 21.714844 24.765625 20.054688 25.328125 18.492188 C 25.570312 17.816406 25.847656 17.105469 26.339844 16.582031 C 26.539062 16.375 26.886719 16.050781 27.191406 16.0625 C 27.367188 16.070312 27.453125 16.195312 27.460938 16.328125 C 27.464844 16.335938 27.472656 16.339844 27.480469 16.347656 C 27.558594 16.433594 27.5625 16.554688 27.578125 16.667969 C 27.613281 16.953125 27.617188 17.242188 27.597656 17.527344 Z M 27.15625 16.875 C 27.148438 16.800781 27.132812 16.722656 27.125 16.648438 C 27.128906 16.65625 27.1875 16.699219 27.136719 16.652344 C 27.109375 16.625 27.082031 16.601562 27.050781 16.578125 C 26.945312 16.640625 26.816406 16.757812 26.773438 16.796875 C 26.664062 16.894531 26.5625 17.007812 26.472656 17.128906 C 26.285156 17.382812 26.140625 17.675781 26.015625 17.96875 C 24.921875 20.472656 24.773438 23.285156 24.648438 26 C 24.871094 26.019531 25.097656 26.042969 25.324219 26.0625 C 25.433594 26.070312 25.554688 26.160156 25.546875 26.292969 C 25.511719 26.71875 25.476562 27.140625 25.445312 27.5625 C 25.449219 27.5625 25.449219 27.5625 25.453125 27.5625 C 25.664062 27.585938 25.886719 27.597656 26.097656 27.644531 C 26.121094 27.3125 26.144531 26.984375 26.167969 26.65625 C 26.269531 25.285156 26.429688 23.929688 26.585938 22.570312 C 26.710938 21.464844 26.839844 20.363281 26.964844 19.257812 C 27.027344 18.730469 27.097656 18.203125 27.140625 17.675781 C 27.164062 17.410156 27.175781 17.140625 27.15625 16.875 Z M 27.15625 16.875 " fill-opacity="1" fill-rule="nonzero"/></g></svg>