<svg version="1.2" xmlns="http://www.w3.org/2000/svg" viewBox="0 0 64 64" width="25" height="25">
	<title>cookie-svg</title>
	<style>
		.s0 { fill: #b4814a } 
		.s1 { fill: #513a2b } 
		.s2 { fill: #2e2e30 } 
		.s3 { opacity: .2;fill: #010202 } 
	</style>
	<g id="Layer">
		<path id="Layer" fill-rule="evenodd" class="s0" d="m61.2 34.2q0.2 0 0.4-0.1 0.2 0 0.4 0 0.2-0.1 0.4-0.1c-1.3 15.8-14.4 28.2-30.4 28.2-16.8 0-30.5-13.7-30.5-30.6 0-14.8 10.4-27.1 24.1-30.1 1.3 2.3 3.6 3.8 6.3 3.8q0.2 0 0.4 0 0.2 0 0.4 0 0.2 0 0.4-0.1 0.2 0 0.4 0-0.5 1.2-0.5 2.7c0 4.6 3.7 8.4 8.3 8.4q0.4 0 0.8-0.1 0.3 0 0.7-0.1 0.3 0 0.7-0.1 0.3-0.1 0.7-0.2 0 0.2-0.1 0.5c0 4.6 3.8 8.3 8.4 8.3q0.3 0 0.6 0 0.3 0 0.6-0.1 0.3 0 0.6-0.1 0.3 0 0.6-0.1c-0.5 0.9-0.8 2-0.8 3.2 0 3.7 3 6.7 6.7 6.7q0.2 0 0.4 0z"/>
		<path id="Layer" fill-rule="evenodd" class="s1" d="m33.5 37.7c0 4-3.2 7.2-7.1 7.2-4 0-7.2-3.2-7.2-7.2 0-4 3.2-7.2 7.2-7.2 3.9 0 7.1 3.2 7.1 7.2z"/>
		<path id="Layer" fill-rule="evenodd" class="s2" d="m26.4 46.4c-4.8 0-8.7-3.9-8.7-8.7 0-4.8 3.9-8.7 8.7-8.7 4.7 0 8.6 3.9 8.6 8.7 0 4.8-3.9 8.7-8.6 8.7zm0-14.3c-3.1 0-5.6 2.5-5.6 5.6 0 3.1 2.5 5.6 5.6 5.6 3 0 5.5-2.5 5.5-5.6 0-3.1-2.5-5.6-5.5-5.6z"/>
		<path id="Layer" fill-rule="evenodd" class="s1" d="m1.5 31.6q0-1.1 0.1-2.2 0.1-1.1 0.2-2.1 0.2-1.1 0.4-2.1 0.2-1.1 0.5-2.1 0.3-0.1 0.5-0.2 0.2-0.1 0.5-0.1 0.2-0.1 0.5-0.1 0.2 0 0.5 0c2.7 0 5 2.3 5 5 0 2.8-2.3 5.1-5 5.1-1.2 0-2.3-0.4-3.2-1.1q0-0.1 0-0.1zm25.3-16.4c0 2.2-1.7 3.9-3.9 3.9-2.1 0-3.9-1.7-3.9-3.9 0-2.2 1.8-3.9 3.9-3.9 2.2 0 3.9 1.7 3.9 3.9z"/>
		<path id="Layer" fill-rule="evenodd" class="s2" d="m22.9 20.7c-3 0-5.4-2.5-5.4-5.5 0-3 2.4-5.5 5.4-5.5 3 0 5.5 2.5 5.5 5.5 0 3-2.5 5.5-5.5 5.5zm0-7.9q-0.4 0-0.9 0.2-0.4 0.2-0.7 0.5-0.4 0.4-0.6 0.8-0.1 0.4-0.1 0.9 0 0.5 0.1 0.9 0.2 0.5 0.6 0.8 0.3 0.3 0.7 0.5 0.5 0.2 0.9 0.2 0.5 0 0.9-0.2 0.5-0.2 0.8-0.5 0.3-0.3 0.5-0.8 0.2-0.4 0.2-0.9 0-0.5-0.2-0.9-0.2-0.4-0.5-0.8-0.3-0.3-0.8-0.5-0.4-0.2-0.9-0.2z"/>
		<path id="Layer" fill-rule="evenodd" class="s1" d="m51.5 41.9c0 2.2-1.7 4-3.9 4-2.2 0-3.9-1.8-3.9-4 0-2.1 1.7-3.9 3.9-3.9 2.2 0 3.9 1.8 3.9 3.9z"/>
		<path id="Layer" fill-rule="evenodd" class="s2" d="m47.6 47.4c-3 0-5.4-2.4-5.4-5.5 0-3 2.4-5.4 5.4-5.4 3 0 5.4 2.4 5.4 5.4 0 3.1-2.4 5.5-5.4 5.5zm0-7.8q-0.5 0-0.9 0.1-0.4 0.2-0.8 0.6-0.3 0.3-0.5 0.7-0.2 0.5-0.2 0.9 0 0.5 0.2 1 0.2 0.4 0.5 0.7 0.4 0.4 0.8 0.5 0.4 0.2 0.9 0.2 0.5 0 0.9-0.2 0.4-0.1 0.8-0.5 0.3-0.3 0.5-0.7 0.2-0.5 0.2-1 0-0.4-0.2-0.9-0.2-0.4-0.5-0.7-0.4-0.4-0.8-0.6-0.4-0.1-0.9-0.1z"/>
		<path id="Layer" fill-rule="evenodd" class="s1" d="m29.7 62.2q-1.1-0.1-2.2-0.3-1.1-0.2-2.3-0.4-1.1-0.3-2.1-0.6c0.1-3.1 2.6-5.6 5.8-5.6 3.2 0 5.8 2.6 5.8 5.9q0 0.5-0.1 0.9-1.3 0.1-2.6 0.1-1.1 0-2.3 0z"/>
		<path id="Layer" fill-rule="evenodd" class="s3" d="m61.2 34.2q0.2 0 0.4-0.1 0.2 0 0.4 0 0.2-0.1 0.4-0.1c-1.3 15.8-14.4 28.2-30.4 28.2-12.4 0-23-7.4-27.8-18 6.1 6.6 14.9 10.8 24.6 10.8 14 0 25.9-8.6 30.9-20.9q0.5 0.1 1.1 0.1 0.2 0 0.4 0z"/>
		<path id="Layer" fill-rule="evenodd" class="s2" d="m34.8 63.7q-0.2 0-0.4 0-0.5 0-1 0.1-0.7 0-1.4 0-1.1 0-2.1-0.1-0.3 0-0.6 0-0.9-0.1-1.9-0.3-0.1 0-0.2 0-1-0.1-2.1-0.4-0.2 0-0.5-0.1-0.9-0.2-1.7-0.5-0.2 0-0.3 0 0 0 0 0c-13-4.1-22.5-16.3-22.6-30.7v-0.1q0-1.1 0.1-2 0-0.3 0-0.5 0.1-0.9 0.2-1.9 0-0.2 0.1-0.5 0-0.1 0-0.3 0.1-0.2 0.1-0.4 0-0.2 0.1-0.4 0-0.1 0-0.3 0.1-0.3 0.2-0.7 0-0.1 0-0.3 0.1-0.2 0.1-0.4 0.1-0.2 0.1-0.4 0.1-0.2 0.1-0.4 0.1-0.2 0.1-0.4 0.1-0.1 0.1-0.2c3.3-11.1 12.4-20 24-22.5q0.3 0 0.5 0 0.3 0 0.5 0.1 0.2 0.1 0.4 0.3 0.2 0.2 0.3 0.4c1.2 2.2 3.6 3.4 6.2 2.8q0.2 0 0.4 0 0.2 0 0.4 0.1 0.2 0.1 0.3 0.2 0.2 0.1 0.3 0.2 0.2 0.2 0.3 0.4 0 0.2 0.1 0.4 0 0.2 0 0.4 0 0.2-0.1 0.4-0.3 1.1-0.3 2.2c0 3.7 3 6.8 6.7 6.8q0.3 0 0.6 0 0.3 0 0.6-0.1 0.3 0 0.6-0.1 0.3-0.1 0.5-0.2 0.2-0.1 0.4-0.1 0.2 0 0.4 0 0.2 0 0.4 0.1 0.1 0.1 0.3 0.2 0.1 0.1 0.3 0.3 0.1 0.1 0.2 0.3 0 0.2 0.1 0.4 0 0.2 0 0.3v0.2q0 0.1 0 0.3c0 3.7 3 6.8 6.8 6.8q0.2 0 0.5 0 0.2 0 0.5-0.1 0.2 0 0.5-0.1 0.2 0 0.5-0.1 0.2-0.1 0.4-0.1 0.3 0 0.5 0.1 0.2 0 0.4 0.2 0.2 0.1 0.3 0.3 0.2 0.2 0.3 0.4 0.1 0.2 0.1 0.4 0 0.2 0 0.5-0.1 0.2-0.2 0.4c-0.4 0.8-0.6 1.6-0.6 2.5 0 2.8 2.3 5.1 5.1 5.1q0.1 0 0.3 0 0.1 0 0.3 0 0.1 0 0.3-0.1 0.1 0 0.3 0c0.5-0.1 1 0 1.4 0.3 0.3 0.3 0.5 0.8 0.5 1.3-1.2 15.7-13.8 28.2-29.1 29.6zm-1.7-3c-0.2-2.2-2-3.9-4.2-3.9q-0.7 0-1.3 0.3-0.7 0.2-1.2 0.6-0.6 0.3-1 0.9-0.4 0.5-0.6 1.2 0.1 0 0.2 0 0.2 0.1 0.4 0.1 0.1 0.1 0.3 0.1 0.2 0 0.4 0.1 0.1 0 0.3 0 0.3 0.1 0.5 0.1 0.6 0.1 1.2 0.2 0.2 0 0.4 0.1 0.2 0 0.4 0 0.3 0 0.5 0.1 0.2 0 0.4 0 0.3 0 0.5 0 0.9 0.1 1.7 0.1 0.6 0 1.1 0zm-29.1-36.4q-0.3 1.1-0.5 2.2v0.4q-0.1 0.2-0.1 0.5-0.1 0.2-0.1 0.5 0 0.3-0.1 0.5 0 0.3 0 0.5 0 0.1 0 0.2-0.1 0.9-0.1 1.8 0.2 0.1 0.4 0.1 0.2 0.1 0.4 0.2 0.2 0 0.4 0 0.2 0.1 0.4 0.1c1.9 0 3.4-1.6 3.4-3.6 0-1.9-1.5-3.5-3.4-3.5q-0.4 0-0.7 0.1zm56.6 11.4c-4.4-0.1-8-3.7-8-8.2q0-0.7 0.1-1.3c-5.1 0.1-9.3-3.6-10-8.5q-0.7 0.1-1.4 0.1c-5.4 0-9.8-4.4-9.8-9.9q0-0.1 0-0.3 0-0.1 0-0.2 0-0.2 0-0.3 0-0.1 0-0.2-0.9-0.1-1.9-0.3-0.9-0.3-1.8-0.8-0.8-0.4-1.6-1.1-0.7-0.6-1.3-1.4c-9.2 2.3-16.6 9.2-19.9 17.9 3.5 0.1 6.2 3 6.2 6.5 0 3.7-2.9 6.6-6.5 6.6q-0.8 0-1.5-0.1c1 11.3 8.5 20.8 18.7 24.6 1-2.9 3.7-5.1 7-5.1 3.8 0 6.9 3 7.3 6.7 12.5-1.9 22.6-11.9 24.4-24.7z"/>
	</g>
</svg>